<svg viewBox="0 0 30 30"><line x1="0" y1="0" x2="10" y2="0" stroke="black"/><line x1="10" y1="0" x2="10" y2="10" stroke="black"/><line x1="0" y1="10" x2="10" y2="10" stroke="black"/><line x1="0" y1="0" x2="0" y2="10" stroke="black"/><line x1="0" y1="10" x2="10" y2="10" stroke="black"/><line x1="10" y1="10" x2="10" y2="20" stroke="black"/><line x1="0" y1="20" x2="10" y2="20" stroke="black"/><line x1="0" y1="10" x2="0" y2="20" stroke="black"/><line x1="0" y1="20" x2="10" y2="20" stroke="black"/><line x1="0" y1="30" x2="10" y2="30" stroke="black"/><line x1="20" y1="0" x2="20" y2="10" stroke="black"/><line x1="10" y1="0" x2="10" y2="10" stroke="black"/><line x1="10" y1="20" x2="20" y2="20" stroke="black"/><line x1="10" y1="10" x2="10" y2="20" stroke="black"/><line x1="10" y1="20" x2="20" y2="20" stroke="black"/><line x1="10" y1="30" x2="20" y2="30" stroke="black"/><line x1="20" y1="0" x2="30" y2="0" stroke="black"/><line x1="30" y1="0" x2="30" y2="10" stroke="black"/><line x1="20" y1="10" x2="30" y2="10" stroke="black"/><line x1="20" y1="0" x2="20" y2="10" stroke="black"/><line x1="20" y1="10" x2="30" y2="10" stroke="black"/><line x1="30" y1="10" x2="30" y2="20" stroke="black"/><line x1="30" y1="20" x2="30" y2="30" stroke="black"/><line x1="20" y1="30" x2="30" y2="30" stroke="black"/><circle cx="5" cy="25" r="3" fill="green"/><circle cx="15" cy="5" r="3" fill="red"/><polyline points="5,25 15,25 25,25 25,15 15,15 15,5 " stroke="black" fill="none"/></svg>
